<?xml version="1.0" encoding="utf-8"?>
<!-- Uploaded to: SVG Repo, www.svgrepo.com, Generator: SVG Repo Mixer Tools -->
<svg width="800px" height="800px" viewBox="0 -53.72 431.871 431.871" xmlns="http://www.w3.org/2000/svg"><defs><style>.a{fill:#ffffff;}.b{fill:#957f6e;}.c{fill:#211715;}.d{fill:#bdbdbd;}.e{fill:#7a7473;}.f{fill:#5394cf;}</style></defs><path class="a" d="M72.324,2.615C40.217,5.036,14.07,27.666,5.771,58.879c-12.166,45.751,8.671,82.255,53.893,94.279,14.448,3.842,27.8,4.374,39.716,1.912,6.669,5.054,11.4,8.442,20.247,14.33.185-10,.259-14.333.165-22.329,15.83-9.638,27.459-26.351,33.474-48.973C163.845,58.314,142.448,16.747,99,5.193A80.116,80.116,0,0,0,72.324,2.615Z"/><path class="b" d="M38.046,71.814c0,13.452-1.1,23.152-2.648,28.668a65.233,65.233,0,0,0-1.985,13.893c-.046,5.569,5.3,11.61,13.5,11.413l63.966-1.535c8.963,3.214,16.76-4.909,16.7-11.182a30.684,30.684,0,0,0-1.937-10.5c-1.595-4.617-4.684-14-4.908-30.758a112.9,112.9,0,0,0-.217-15.216c-.7-9.763-5.061-20.665-11.341-26.724-1.61-1.553-2.543-2.615-3.651-3.557l-7.757-4.351a45.586,45.586,0,0,0-18.234-3.493,44.673,44.673,0,0,0-28.7,11.221c-8.231,7.88-13.452,22.273-12.793,42.12"/><path class="a" d="M92.878,46.191c-4,5.334-14.686,11.87-25.317,14.519a65.848,65.848,0,0,0-19.282,8.757,4.769,4.769,0,0,0-3.816-1.117A4.5,4.5,0,0,0,41.226,70.5a6.369,6.369,0,0,0-.667,2.56A19.085,19.085,0,0,0,42.5,83.176a12.134,12.134,0,0,0,3.136,4.115,7.672,7.672,0,0,0,4.924,1.756,32.486,32.486,0,0,0,6.215,12.184,27.238,27.238,0,0,0,10.136,7.882,41.181,41.181,0,0,1-.628,5.306c-.383,2.183-.263,4.135-3.3,5.232-.2.072-9.8,4.564-10.389,4.763,0,0,.131,24,27.983,22.814s26.926-23.282,26.926-23.282c-.308-.126-8.919-4.223-9.119-4.3-3.037-1.1-2.917-3.049-3.3-5.232a44.419,44.419,0,0,1-.636-5.616c7.86-3.553,14.151-14.093,15.259-17.1.169-.512.512-1.475.818-2.619.412-.073.643-.109.643-.109a8.034,8.034,0,0,0,3.738-1.684,12.118,12.118,0,0,0,3.135-4.115,19.066,19.066,0,0,0,1.945-10.113,6.352,6.352,0,0,0-.666-2.56,4.5,4.5,0,0,0-3.237-2.153,4.768,4.768,0,0,0-3.816,1.117c-6.1-1.239-16.728-15.942-19.395-23.276"/><path class="a" d="M67,147.586c-1.443-4.16-2.892-8.4-4.314-12.592l.6.155a70.222,70.222,0,0,0,16.03,2.3c5.113.013,12.386-.795,17.38-2.781l1.606-.508c-2.411,7.5-5.156,15.085-7.7,22.154a85.817,85.817,0,0,1-20.886-.985C68.821,152.8,67.913,150.209,67,147.586Z"/><path class="c" d="M64.483,109.68A34.65,34.65,0,0,1,64,113.638a24.2,24.2,0,0,1-.451,2.524c-.028.1-.063.193-.09.291-.1.341-.044-.152.073-.153-.016,0-.253.45-.26.466-.109.258.328-.268.088-.11a1.442,1.442,0,0,0-.168.18c-.082.081-.168.155-.255.23.251-.215.18-.131-.052,0-.1.053-.658.35-.3.185-.253.118-.587.234-.821.337l-.262.118c-2.406,1.094-4.8,2.225-7.2,3.33q-.931.427-1.863.851c-.222.1-.445.2-.666.3-.494.223.639-.242.193-.083a2.4,2.4,0,0,0,1.276,4.629c1.019-.365,2.007-.873,2.989-1.323q2.216-1.017,4.425-2.045l3.265-1.511a1.088,1.088,0,0,1,.263-.118c.043-.006-.869.351-.439.19.207-.078.411-.167.615-.253a7.2,7.2,0,0,0,1.035-.51,6.347,6.347,0,0,0,2.587-3.148,13.554,13.554,0,0,0,.6-2.787c.3-1.84.583-3.681.71-5.544a2.414,2.414,0,0,0-2.4-2.4,2.457,2.457,0,0,0-2.4,2.4Z"/><path class="c" d="M92.058,108.875a57.74,57.74,0,0,0,1,7.925,6.719,6.719,0,0,0,4.462,5.077c.71.282-.672-.321-.165-.076.16.078.323.15.484.226q.761.357,1.521.717,2.061.974,4.119,1.949c.937.443,1.866.919,2.82,1.326a2.468,2.468,0,0,0,3.284-.861c.544-1.03.372-2.758-.861-3.284-2.023-.862-3.991-1.88-5.978-2.82-.964-.457-1.925-.923-2.9-1.365-.076-.035-.151-.07-.228-.1-.27-.119-.555-.213-.823-.337.346.16-.326-.2-.41-.25-.382-.218.256.24-.167-.136-.064-.057-.115-.127-.178-.183.054.047.283.446.078.1-.02-.032-.244-.4-.234-.407.052-.025.17.5.061.144-.03-.1-.066-.2-.1-.3a24.243,24.243,0,0,1-.517-2.875,38.848,38.848,0,0,1-.472-4.47,2.4,2.4,0,0,0-4.8,0Z"/><path class="c" d="M98.413,19.651A49.257,49.257,0,0,0,78,16.106,47,47,0,0,0,57.3,22.136,37.032,37.032,0,0,0,45.249,32.5a46.483,46.483,0,0,0-7.1,15.311,81.21,81.21,0,0,0-2.5,24c.095,3.082,4.895,3.1,4.8,0-.371-11.952,1.068-24.855,7.719-35.114C53.923,27.817,65.028,22.187,75.6,21.081a45.072,45.072,0,0,1,21.534,3.2A2.417,2.417,0,0,0,100.09,22.6a2.459,2.459,0,0,0-1.677-2.953Z"/><path class="c" d="M123.141,71.814a84.79,84.79,0,0,0-.643-18.968,47.2,47.2,0,0,0-7.654-19.922,46.077,46.077,0,0,0-7.615-8.3c-2.324-2.014-5.734,1.367-3.394,3.394a39.346,39.346,0,0,1,11.027,15.031,53.253,53.253,0,0,1,3.514,17.793,84.807,84.807,0,0,1-.035,10.976,2.419,2.419,0,0,0,2.4,2.4,2.448,2.448,0,0,0,2.4-2.4Z"/><path class="c" d="M35.646,71.814c-.009,8.817-.155,17.934-2.176,26.526a91.58,91.58,0,0,0-2.253,12.5c-.374,3.986-.136,7.711,2.346,11.036a16.175,16.175,0,0,0,13.354,6.311c3.087-.037,3.095-4.837,0-4.8a11.394,11.394,0,0,1-9.394-4.178,9.141,9.141,0,0,1-1.653-3.753,23.3,23.3,0,0,1,.241-5.549,99.975,99.975,0,0,1,2.12-10.873,85.406,85.406,0,0,0,1.538-10.62c.508-5.517.672-11.062.677-16.6,0-3.089-4.8-3.093-4.8,0Z"/><path class="c" d="M118.341,71.814a103.659,103.659,0,0,0,3.449,26.522c.838,2.973,2.017,5.854,2.722,8.862.946,4.04,1.232,7.678-1.249,10.987a10.31,10.31,0,0,1-11.742,3.753c-2.929-1-4.187,3.633-1.276,4.629a14.727,14.727,0,0,0,14.194-2.75,14.476,14.476,0,0,0,5.54-11.2c-.089-4.635-1.469-8.829-2.851-13.187a79.12,79.12,0,0,1-2.391-9.669,109,109,0,0,1-1.6-17.945c-.046-3.085-4.846-3.095-4.8,0Z"/><path class="c" d="M113.97,71.164a2.287,2.287,0,0,1,3.206.423,5.121,5.121,0,0,1,.479,2.587,15.834,15.834,0,0,1-.217,3.24c-.7,3.845-2.622,8.48-6.9,9.247a2.423,2.423,0,0,0-1.677,2.953,2.455,2.455,0,0,0,2.953,1.676c6.815-1.222,10.071-8.9,10.584-15.078.268-3.23-.041-6.846-2.827-8.927a7.207,7.207,0,0,0-8.993.485,2.419,2.419,0,0,0,0,3.394,2.452,2.452,0,0,0,3.394,0Z"/><path class="c" d="M108.725,85.426a17.738,17.738,0,0,1-1.038,4.779c-.094.286-.2.57-.288.86-.047.162-.239.55.057-.113-.151.339-.307.675-.474,1.007a40.833,40.833,0,0,1-3.525,5.666c-3.019,4.141-7.211,8.575-12.327,9.775-3.007.706-1.734,5.335,1.276,4.629,6.358-1.492,11.283-6.682,15.023-11.746,3.224-4.365,5.871-9.313,6.1-14.857.125-3.089-4.675-3.084-4.8,0Z"/><path class="c" d="M49.976,67.77a7.209,7.209,0,0,0-8.993-.485c-2.79,2.073-3.095,5.7-2.827,8.927.513,6.177,3.769,13.856,10.584,15.078a2.468,2.468,0,0,0,2.952-1.676,2.421,2.421,0,0,0-1.676-2.953c-4.28-.767-6.2-5.4-6.9-9.247a15.543,15.543,0,0,1-.22-3.054,5.989,5.989,0,0,1,.4-2.646,2.267,2.267,0,0,1,3.284-.55,2.467,2.467,0,0,0,3.394,0,2.42,2.42,0,0,0,0-3.394Z"/><path class="c" d="M47.58,86.931C50.224,99.36,59.3,111.559,72.689,113a2.415,2.415,0,0,0,2.4-2.4,2.454,2.454,0,0,0-2.4-2.4c-5.343-.573-9.89-3.807-13.389-7.711a31.723,31.723,0,0,1-7.092-14.831c-.642-3.02-5.27-1.742-4.628,1.276Z"/><path class="c" d="M78.176,79.562c-.256.977-.487,1.964-.655,2.96a4.354,4.354,0,0,0-.015,1.934,2.889,2.889,0,0,0,1.513,1.864,4.009,4.009,0,0,0,1.908.475c.412-.018.8-.119,1.21-.174a2.677,2.677,0,0,0,1.434-1.1,2.4,2.4,0,0,0-.861-3.283l-.573-.242a2.4,2.4,0,0,0-1.276,0c-.146.019-.29.055-.436.075l.638-.085a1.616,1.616,0,0,1-.387,0l.638.086a1.809,1.809,0,0,1-.413-.12l.573.242a2.036,2.036,0,0,1-.244-.13l.485.375a.675.675,0,0,1-.1-.1l.376.485a.7.7,0,0,1-.068-.123l.242.573a1.035,1.035,0,0,1-.047-.192l.086.638a1.84,1.84,0,0,1,.011-.426l-.086.638a28.633,28.633,0,0,1,.676-3.092,2.5,2.5,0,0,0-.242-1.849,2.4,2.4,0,0,0-3.283-.861,2.473,2.473,0,0,0-1.1,1.434Z"/><path class="c" d="M63.232,71.866c-.516,1.678-.18,5.537,3,5.866,4.2-.025,4.425-4.692,3.01-6.886C68.083,69.05,64.679,68.3,63.232,71.866Z"/><path class="c" d="M96.875,71.866c.516,1.678.18,5.537-3,5.866-4.2-.026-4.425-4.692-3.01-6.886C92.023,69.05,95.428,68.3,96.875,71.866Z"/><path class="c" d="M62.647,137.463a65.682,65.682,0,0,0,17.7,2.381,49.857,49.857,0,0,0,16.991-2.858,2.472,2.472,0,0,0,1.676-2.953,2.418,2.418,0,0,0-2.952-1.676c-10.108,3.929-21.839,3.193-32.134.478-2.99-.789-4.265,3.84-1.276,4.628Z"/><path class="c" d="M42.379,87.538c-.01,5.775-.6,11.82.782,17.491,1.184,4.856,5.425,7.665,9.731,9.6a2.475,2.475,0,0,0,3.284-.861,2.419,2.419,0,0,0-.861-3.284,22.859,22.859,0,0,1-4.739-2.643,7.545,7.545,0,0,1-2.95-4.819c-1.021-5.029-.456-10.389-.447-15.483,0-3.089-4.8-3.093-4.8,0Z"/><path class="c" d="M58.464,109.277a3.922,3.922,0,0,1,.853,5.7,6.036,6.036,0,0,1-4.8,1.883c-1.931-.062-4.511-1.945-4.815-4.1-.294-2.093,2.213-3.887,4.524-4.385A4.906,4.906,0,0,1,58.464,109.277Z"/><path class="c" d="M82.97,101.507A16.057,16.057,0,0,0,85.2,99.69a23.608,23.608,0,0,0,1.839-2.252c1.15-1.592,2.6-4.056,1.376-5.958a3.5,3.5,0,0,0-3.129-1.518l-1.812-.005-4.2-.015q-2.119-.009-4.239-.015a2.4,2.4,0,1,0,0,4.8q4.3.012,8.594.03l1.841.006H85.7a1.6,1.6,0,0,1-1.544-1.173l-.01-.826c-.04.121-.082.242-.128.362-.1.252-.093.238.02-.042-.04.088-.081.175-.124.262-.1.2-.207.4-.321.6-.23.4-.493.774-.756,1.152-.316.453.216-.242-.112.145-.172.2-.34.41-.516.61-.3.336-.606.651-.928.962-.351.339.364-.252-.082.069-.22.157-.437.319-.653.481a2.622,2.622,0,0,0-1.1,1.434,2.452,2.452,0,0,0,.242,1.849,2.425,2.425,0,0,0,3.284.861Z"/><path class="c" d="M90.564,46.829C92.585,52.3,96,57.269,99.592,61.812a46.511,46.511,0,0,0,5.9,6.351,14.784,14.784,0,0,0,6.142,3.618c3.01.663,4.3-3.963,1.276-4.629-.22-.048-1.267-.432-.737-.194a10.79,10.79,0,0,1-1.232-.66,13.017,13.017,0,0,1-2.346-1.786,47.633,47.633,0,0,1-5.61-6.095,66.466,66.466,0,0,1-4.7-6.818c-.666-1.1-1.3-2.219-1.885-3.365a22.822,22.822,0,0,1-1.209-2.681,2.465,2.465,0,0,0-2.952-1.676,2.419,2.419,0,0,0-1.676,2.952Z"/><path class="c" d="M90.806,44.98a30.549,30.549,0,0,1-7.58,6.35,56.834,56.834,0,0,1-11.911,5.758c-4.01,1.383-8.122,2.259-12.055,3.89a71.609,71.609,0,0,0-12.193,6.416c-2.562,1.7-.161,5.859,2.423,4.145A62.068,62.068,0,0,1,68.2,63.025a59.86,59.86,0,0,0,19.553-8.959,32.389,32.389,0,0,0,7.2-6.663,2.413,2.413,0,0,0-.861-3.284,2.46,2.46,0,0,0-3.283.861Z"/><path class="a" d="M44.25,64.011c-4.317.765-6.108,6.6-5.757,11.579.332,4.71,1.582,9.743,5.687,12.121,1.621.735,4.072,1.1,5.5-.44s1.746-3.847,1.87-6a57.018,57.018,0,0,0-.472-11.321c-.3-2.1-.727-3.645-2.3-4.974A5.637,5.637,0,0,0,44.25,64.011Z"/><path class="c" d="M43.612,61.7c-4.741.972-6.852,5.933-7.4,10.257A22.067,22.067,0,0,0,38.8,85.632a10.568,10.568,0,0,0,5.424,4.659,6.928,6.928,0,0,0,7.038-1.209c1.941-1.868,2.457-4.7,2.653-7.267A54.247,54.247,0,0,0,53.8,72.66c-.272-2.905-.483-6.042-2.39-8.4-1.954-2.416-4.845-3.029-7.794-2.564a2.417,2.417,0,0,0-1.677,2.952,2.46,2.46,0,0,0,2.953,1.676A3.162,3.162,0,0,1,47.9,67.561c.924,1.362.942,3.5,1.093,5.1a56.993,56.993,0,0,1,.229,6.8,13.688,13.688,0,0,1-.743,5.311c-1.354,2.925-4.662-.03-5.7-1.842a17.756,17.756,0,0,1-1.911-9.319,11.994,11.994,0,0,1,1.087-4.735,4.022,4.022,0,0,1,2.935-2.552A2.4,2.4,0,0,0,43.612,61.7Z"/><path class="d" d="M92.792,156.108q-1.089.12-2.191.208c4.222-11.735,9-24.9,11.889-36.714.605.453,5.97,4.444,5.97,4.445,1.746.844,8.062,3.487,12.236,5.2a32.727,32.727,0,0,1,11.195,8.265,64.1,64.1,0,0,1-12.1,9.558c.094,8,.02,12.329-.165,22.329-8.852-5.888-13.578-9.276-20.247-14.33Q96.155,155.736,92.792,156.108Z"/><path class="d" d="M60.569,153.4q4.654,1.2,9.151,1.937c-4.108-11.573-8.415-24.409-12.188-35.659-.025.019-.053.038-.053.038L54.3,121.867q-1.543,1.185-2.9,2.426c-1.742.075-7.67,3.165-12.044,4.956a32.949,32.949,0,0,0-11.487,8.594c8.6,6.77,19.264,11.983,31.8,15.315Q60.117,153.28,60.569,153.4Z"/><path class="c" d="M72.324.215a76.763,76.763,0,0,0-46.56,20.412C12.891,32.7,4.95,48.743,1.7,65.97c-2.975,15.755-2.282,32.2,4.046,47.076,5.935,13.947,16.688,25.261,29.728,32.839a96.013,96.013,0,0,0,23.555,9.588,92.824,92.824,0,0,0,33.452,3.07q3.8-.4,7.541-1.158l-1.85-.242c6.6,5,13.358,9.743,20.248,14.33a2.42,2.42,0,0,0,3.611-2.073c.138-7.443.251-14.884.165-22.329L121,149.143c11.8-7.225,20.921-18.034,27.074-30.35,6.344-12.7,10.3-26.938,10.261-41.19a77.832,77.832,0,0,0-9.178-36.491,76.391,76.391,0,0,0-25.807-27.841A84.457,84.457,0,0,0,78.922.005c-2.2-.025-4.4.051-6.6.21a2.458,2.458,0,0,0-2.4,2.4,2.42,2.42,0,0,0,2.4,2.4A79.727,79.727,0,0,1,120.5,17.141a71.648,71.648,0,0,1,26.174,29.68,73.621,73.621,0,0,1,6.48,38.692,88.769,88.769,0,0,1-5.368,21.949A85.066,85.066,0,0,1,136.9,128,64.415,64.415,0,0,1,122.222,142.6q-1.027.726-2.082,1.412c-.983.639-2.325,1.189-2.663,2.416a11.111,11.111,0,0,0-.062,2.9q.012,1.471.016,2.944c.009,3.482-.029,6.964-.085,10.446q-.054,3.339-.119,6.677l3.611-2.072c-4.366-2.906-8.706-5.851-12.959-8.922q-2.9-2.1-5.758-4.252c-.455-.343-.9-.73-1.374-1.038a2.963,2.963,0,0,0-2.4-.279c-1.343.245-2.681.5-4.035.687-11.48,1.57-23.223.227-34.358-2.774-15.958-4.3-31.021-12.489-41.458-25.544C8.8,113.078,4.471,97.573,4.767,82.114,5.106,64.412,10.509,46.3,21.558,32.3A72.245,72.245,0,0,1,65.9,5.8c2.128-.366,4.267-.617,6.42-.784a2.461,2.461,0,0,0,2.4-2.4A2.419,2.419,0,0,0,72.324.215Z"/><path class="c" d="M92.915,156.957c4.353-12.1,8.816-24.216,11.889-36.717l-3.525,1.434q2.418,1.81,4.845,3.608a22.885,22.885,0,0,0,4.892,2.5c3.191,1.363,6.511,2.542,9.619,4.081a31.706,31.706,0,0,1,8.99,6.727c2.128,2.248,5.518-1.151,3.394-3.394a35.705,35.705,0,0,0-9.219-7.1c-3.214-1.693-6.71-2.905-10.051-4.328a23.99,23.99,0,0,1-5.121-2.573q-2.465-1.833-4.927-3.668a2.413,2.413,0,0,0-3.525,1.435c-3.074,12.5-7.537,24.619-11.89,36.717a2.422,2.422,0,0,0,1.676,2.952,2.45,2.45,0,0,0,2.953-1.676Z"/><path class="c" d="M72.037,154.7c-4.2-11.843-8.2-23.757-12.191-35.67a2.44,2.44,0,0,0-4.012-1.059c.914-.715.155-.124-.054.033l-1.031.777-2.685,2.023a23,23,0,0,1-1.845,1.39,19.617,19.617,0,0,1-2.871,1.219c-3.632,1.49-7.429,2.778-10.916,4.587a35.447,35.447,0,0,0-9.393,7.194c-2.119,2.246,1.269,5.647,3.394,3.394a31.526,31.526,0,0,1,8.979-6.727c3.362-1.665,6.978-2.889,10.443-4.328a18.589,18.589,0,0,0,2.883-1.267c.708-.451,1.361-1.026,2.031-1.53,1.488-1.121,2.992-2.223,4.459-3.371l-4.011-1.059c4,11.913,7.99,23.827,12.191,35.67a2.461,2.461,0,0,0,2.952,1.676,2.422,2.422,0,0,0,1.677-2.952Z"/><path class="a" d="M329.442,73.743c2.75-2.686,7.478-2.693,10.615-.47a11.845,11.845,0,0,1,4.554,10.084,19.548,19.548,0,0,1-4.1,10.6,28.2,28.2,0,0,1-11.837,9.067,54.767,54.767,0,0,1-10.863,13.6,44.249,44.249,0,0,1-17.1,10.353,40.842,40.842,0,0,1-22.716.454,40.306,40.306,0,0,1-11.364-4.93,38.976,38.976,0,0,1-10.324-10.127,52.883,52.883,0,0,1-7.9-15.657,73.324,73.324,0,0,1-3.262-15.687c-.339-2.933-.481-5.424-.545-7.262,0,0-4.774-31,36.408-33.089C328.2,38.29,329.442,73.743,329.442,73.743Z"/><path class="e" d="M329.442,73.743c2.75-2.686,7.478-2.693,10.615-.47a10.212,10.212,0,0,1,2.991,3.389c2.223-4.9,3.654-15.374,3.593-20.046-.155-11.911-3.707-25.949-14.419-34.565l-6.455-6.3a40.979,40.979,0,0,0-26.5-12.707c-9.241-.608-22.933-.528-37.066,8.8a37.708,37.708,0,0,0-8.579,7.46l-4.667,7.37c-8.4,12.013-10.672,26.963-6.711,45.137,3.113-.9,6.574-1.915,6.574-1.915,8.727-2.678,8.918-6.677,12.334-13.457,1.174-2.328,2.311-4.757,4.542-6.56,4.756-3.844,12.72-3.607,19.429-2.465,7.333,1.889,14.23-.523,20.469,3.049a25.147,25.147,0,0,1,6.506,4.152c5.8,4.751,8.993,10.572,13.165,19.3a2.223,2.223,0,0,0,3.684.276"/><path class="d" d="M399.262,252c-1.39-24.84-9.56-65.68-14.24-83.76-1.17-4.52-2.33-9.08-5.07-12.86a38.574,38.574,0,0,0-14.48-12.74c-7.829-4.189-20.407-9.8-29.787-14.448-.047-.066-.1-.132-.15-.2a38.264,38.264,0,0,0-7.588-7.325c-3.331,6.353-7.092,15.638-11.195,23.578-6.195,11.987-18.309,48.193-21.446,57.2-1.676,4.814-2.953,9.635-4.764,15.053l-1.2-1.949a201.613,201.613,0,0,1-7.46-23.546A185,185,0,0,1,277.2,161.7a300.489,300.489,0,0,1-.164-34.533c-1.353-.394-2.6-.831-3.721-1.272-12.333,10.152-32.645,12.667-41.5,27.521-2.112,3.55-3.262,7.59-4.372,11.57-.813,2.92-7.237,28.39-8.049,31.3l-4.915,19.935c7.5.237,13.7.431,17.8.555a5.992,5.992,0,0,1,5.725,4.986c1.586,9.288,3.2,18.7,4.878,28.444,5.274-6.524,11.826-21.527,15.021-29.836,2.39,10.136,4.475,18.943,4.924,22.053.632,4.308,1.76,11.028,2.48,15.579h51.826a100.94,100.94,0,0,1,4.89,22.813c5.037-.074,38.223-.444,45.817-1.217,5.991-.61,12.136-.745,17.751-2.921s10.741-6.477,12.354-12.28a52.822,52.822,0,0,0,1.041-16.617"/><path class="a" d="M311.7,121.593a40.143,40.143,0,0,1-10.986,5.384,40.842,40.842,0,0,1-22.716.454q-.49-.129-.963-.268A301.412,301.412,0,0,0,277.2,161.7a185,185,0,0,0,4.676,29.309,201.613,201.613,0,0,0,7.46,23.546l1.068,2.353c1.885-5.582,3.183-10.524,4.9-15.457,3.137-9.01,15.251-45.216,21.446-57.2,3.571-6.912,6.884-14.842,9.873-20.965a4.526,4.526,0,0,1-.322-.537,63.925,63.925,0,0,1-4.139-10.541,53.961,53.961,0,0,1-4.349,4.422A58.37,58.37,0,0,1,311.7,121.593Z"/><path class="f" d="M295.559,134.557q-1.031-.98-2.074-1.947c-3.027,3-5.621,5.467-8.492,8.277l.262.981c.888,2.851,2.518,7.536,3.48,10.115-.758,3.219-1.674,6.744-2.2,9.751a194.433,194.433,0,0,0-2.889,20.445l-3.585.366c.544,2.75,1.15,5.552,1.815,8.461a201.613,201.613,0,0,0,7.46,23.546l1,2.567c1.924-5.67,3.233-10.675,4.973-15.671,1.418-4.073,4.67-13.7,8.381-24.14l-.04-.352c-.814-3.925-3.18-22.59-3.17-23.822.813-3.981,1.838-6,3.5-10.188Q299.871,138.653,295.559,134.557Z"/><path class="c" d="M55.331,276.23q8.344,0,16.69-.027l26.385-.043q3.351,0,6.7-.01c3.089,0,3.094-4.8,0-4.8q-8.625,0-17.252.027l-26.229.043q-3.149,0-6.3.01c-3.089,0-3.094,4.8,0,4.8Z"/><path class="a" d="M247,274.029c2.324,13.417,4.8,27.653,7.514,43.184l.655,3.1c8.939-4.948,38.99-22.419,54.129-31.711,0,0,6.7-4.5,12.679-8.5-.108-1.268-.392-3.531-.87-6.315Z"/><path class="a" d="M258.466,277.13c0-.117-.006-.231,0-.343a4.826,4.826,0,0,1,1.228-3.1l.886-1.124-1.152.243a4.339,4.339,0,0,1-4.54-1.69c-.84-1.24-.31-3.33.06-4.08a11.906,11.906,0,0,1,2.23-2.72c1.01-1,5.39-4.35,6.53-5.18a105.827,105.827,0,0,1,14.37-8.82c4.07-2.07,8.63-3.91,13.08-2.95,5.68,1.23,8.433,3.739,14.073,5.119,3.972.978,6.2.076,9.54-.012,3.278,6.315,5.336,15.376,6.391,21.626l-.693.207c-1.427.6-5.035,2.836-9.188,4.558a15.177,15.177,0,0,1-11.676-.05,85.215,85.215,0,0,1-10.649,9.971c-.712.571-3.073,2.307-5,.674-1.265-1.073-.969-3.527-.345-4.483,3.005-4.607,4.282-8.023,7.606-12.27-5.511,3.424-10.812,7.433-16.3,10.91-1.785,1.13-3.274,2.112-5.355,1.747a3.827,3.827,0,0,1-3.219-3.986,5.932,5.932,0,0,1,1.067-2.8l-1.653.767a10.968,10.968,0,0,1-3.209,1.064,3.977,3.977,0,0,1-3.219-.949A3.9,3.9,0,0,1,258.466,277.13Z"/><path class="c" d="M396.673,248.414c-.049-.345.009.1.013.141.017.188.037.375.052.563.034.4.057.81.075,1.215.042.96.047,1.921.031,2.882-.034,1.941-.157,3.882-.367,5.812-.371,3.4-1.088,6.7-3.278,9.425-5.839,7.265-15.442,7.821-24.008,8.612-10.951,1.011-22.026.961-33.014,1.143-4.718.077-9.435.135-14.153.2l2.4,2.4a69.309,69.309,0,0,0-1.5-10.351,81.9,81.9,0,0,0-4.353-15.38,31.731,31.731,0,0,0-4.035-7.48,2.48,2.48,0,0,0-3.284-.861,2.416,2.416,0,0,0-.861,3.284c3.83,4.962,5.566,11.423,6.984,17.437q1.017,4.311,1.7,8.694.137.873.257,1.75c-.085-.617.026.209.04.321.029.229.056.457.083.686.072.631.141,1.265.167,1.9a2.439,2.439,0,0,0,2.4,2.4c10.763-.157,21.527-.287,32.287-.591,4.968-.141,9.93-.3,14.88-.756,5.135-.474,10.386-.73,15.339-2.283a26.043,26.043,0,0,0,11.341-6.907c3.2-3.457,4.608-7.526,5.217-12.111a49.647,49.647,0,0,0,.214-13.425,2.417,2.417,0,0,0-2.953-1.677,2.465,2.465,0,0,0-1.676,2.953Z"/><path class="c" d="M247.219,180.966a112.452,112.452,0,0,0,2.047,12.14c1.144,5.564,2.405,11.1,3.686,16.638,2.321,10.025,4.871,20.01,6.96,30.086,1.288,6.21,2.089,12.545,3.081,18.807a2.418,2.418,0,0,0,2.953,1.676,2.458,2.458,0,0,0,1.676-2.952c-.929-5.865-1.7-11.793-2.841-17.62-.786-4.01-1.741-7.988-2.67-11.966-2.619-11.2-5.35-22.382-7.734-33.638-.554-2.612-1.088-5.229-1.562-7.858-.192-1.06-.373-2.122-.534-3.188-.034-.227-.066-.455-.1-.682-.058-.393.052.457-.021-.162-.05-.427-.1-.853-.141-1.281a2.466,2.466,0,0,0-2.4-2.4,2.417,2.417,0,0,0-2.4,2.4Z"/><path class="c" d="M247.774,247.36c5.094-8.268,8.987-17.379,12.472-26.424a2.418,2.418,0,0,0-1.676-2.952,2.455,2.455,0,0,0-2.952,1.676,152.863,152.863,0,0,1-11.988,25.277c-1.625,2.637,2.525,5.051,4.144,2.423Z"/><path class="c" d="M321.8,244.545c12.944,1.158,26.1-.249,39.037-.963,3.072-.17,3.092-4.971,0-4.8-12.932.714-26.093,2.121-39.037.963a2.417,2.417,0,0,0-2.4,2.4,2.451,2.451,0,0,0,2.4,2.4Z"/><path class="c" d="M258.79,270.5a2.385,2.385,0,0,1-1.493-.274c-.666-.456-.483-1.209-.28-1.9.147-.5.059-.19,0-.072a4.241,4.241,0,0,1,.366-.62,9.849,9.849,0,0,1,1.024-1.148,19.517,19.517,0,0,1,1.555-1.419,103.1,103.1,0,0,1,9.461-6.964c4.53-2.958,9.449-6.078,14.624-7.759a13.116,13.116,0,0,1,7.763-.343,45.457,45.457,0,0,1,6.52,2.549,30.5,30.5,0,0,0,8.35,2.633c2.7.355,5.31-.194,8.008-.3,3.078-.123,3.094-4.923,0-4.8-2.557.1-5.132.736-7.691.332a31.6,31.6,0,0,1-7.912-2.76,31.648,31.648,0,0,0-8.155-2.747,18.65,18.65,0,0,0-9.422,1.257,81.525,81.525,0,0,0-17.156,9.581,63.7,63.7,0,0,0-9.34,7.347c-2.076,2.135-3.688,5.016-2.722,8.092,1.034,3.292,4.664,4.5,7.773,3.943a2.421,2.421,0,0,0,1.676-2.952,2.453,2.453,0,0,0-2.952-1.676Z"/><path class="c" d="M275.859,258.21a120.958,120.958,0,0,0-12.731,9.011c-3.5,2.778-8.323,6.483-6.787,11.627a5.391,5.391,0,0,0,4.239,3.839c2.282.427,4.338-.33,6.388-1.269a2.42,2.42,0,0,0,.861-3.284,2.457,2.457,0,0,0-3.284-.861,10.343,10.343,0,0,1-1.8.659,2.338,2.338,0,0,1-1.163.071c-.106-.024-.608-.228-.444-.145.135.068-.087-.1-.13-.184a2.015,2.015,0,0,1-.123-1.181c-.029.219.093-.338.121-.418-.057.161.213-.4.3-.527.133-.207.412-.806.652-.935-.142.076-.394.459-.1.147.1-.11.2-.225.305-.335.23-.244.47-.479.714-.709a81.456,81.456,0,0,1,9.721-7.6c1.859-1.307,3.742-2.587,5.69-3.757,2.645-1.589.234-5.741-2.423-4.145Z"/><path class="c" d="M283.706,263.171c-3.626,2.281-7.116,4.76-10.606,7.241-3.18,2.261-6.636,4.372-8.362,8.042-1.639,3.486-.395,7.64,3.4,9.007,4.079,1.468,7.85-1.628,11.032-3.756,4.172-2.791,8.238-5.737,12.474-8.431,2.6-1.653.194-5.808-2.423-4.144-3.979,2.53-7.809,5.283-11.717,7.921a37.617,37.617,0,0,1-5.858,3.7c-.916.391-2.258.447-2.733-.443-.535-1,.212-2.115.994-3.158a20.376,20.376,0,0,1,4.873-4.071c3.739-2.653,7.464-5.325,11.346-7.768,2.608-1.641.2-5.8-2.422-4.144Z"/><path class="c" d="M288.438,272.441a76.444,76.444,0,0,0-4.589,7.505c-1.366,2.406-3.384,4.692-3.151,7.631a5.241,5.241,0,0,0,2.265,4.125,5.41,5.41,0,0,0,4.689.529,10.5,10.5,0,0,0,3.244-1.942q1.863-1.5,3.659-3.08a81.776,81.776,0,0,0,7.2-7.2,2.457,2.457,0,0,0,0-3.394,2.421,2.421,0,0,0-3.394,0q-2.568,2.912-5.4,5.571-1.471,1.375-3.006,2.682-.741.632-1.492,1.25-.415.342-.834.68a2.525,2.525,0,0,1-.364.293c.152-.077.475-.337.129-.1a11.206,11.206,0,0,1-1.007.612c-.357.191.2-.006-.21.07-.142.027-.279.08-.422.1.336-.056.087.043-.019-.029.024.016.528.193-.032-.007-.013,0-.34-.15-.159-.054.274.144-.152-.28.115.146-.148-.236-.131-.452-.087-.116a2.541,2.541,0,0,1-.076-.284c-.036-.177-.034-.127.007.148l-.014-.2c0-.2,0-.4.008-.6.008-.454.013-.032-.011.062.023-.09.033-.182.061-.27s.053-.173.071-.257c.086-.4-.013.039-.064.122.162-.261.319-.525.484-.785.71-1.114,1.378-2.253,2.029-3.4a74.435,74.435,0,0,1,4.52-7.385,2.418,2.418,0,0,0-.861-3.284,2.454,2.454,0,0,0-3.283.861Z"/><path class="c" d="M300.384,281.654a18.258,18.258,0,0,0,12.61-.927c2.98-1.282,5.719-3.059,8.686-4.346a2.415,2.415,0,0,0,.861-3.283,2.463,2.463,0,0,0-3.284-.862c-2.635,1.144-5.079,2.721-7.7,3.911a13.764,13.764,0,0,1-9.9.878c-2.967-.884-4.234,3.748-1.276,4.629Z"/><path class="a" d="M105.849,217.665c4.818,28.211,9.905,57.617,16.392,94.853a4.138,4.138,0,0,0,3.7,3.417c22.379,1.992,98.063,5.27,124.379,6.12a4.128,4.128,0,0,0,4.2-4.842c-6.477-37.082-11.624-66.851-16.509-95.454a5.992,5.992,0,0,0-5.725-4.986c-21.584-.653-101.35-3.247-122.244-3.92A4.115,4.115,0,0,0,105.849,217.665Z"/><path class="c" d="M103.534,218.3q4.929,28.846,9.932,57.682,2.883,16.634,5.78,33.263c.459,2.633.576,5.5,2.7,7.412,1.505,1.356,3.3,1.619,5.227,1.781,2.221.187,4.443.35,6.666.5,13.5.939,27.029,1.62,40.549,2.288q23.493,1.159,46.993,2.123,9.775.4,19.553.771,3.885.142,7.77.275a8.974,8.974,0,0,0,5-.811,6.608,6.608,0,0,0,3.273-5.712,27.347,27.347,0,0,0-.662-4.242l-.8-4.59q-.762-4.366-1.522-8.733-1.417-8.136-2.831-16.274-2.659-15.312-5.3-30.629-2.471-14.335-4.923-28.676c-.377-2.205-.53-4.56-1.771-6.488a8.373,8.373,0,0,0-5.573-3.729,50.756,50.756,0,0,0-6.656-.309q-18.638-.579-37.273-1.184-22.629-.728-45.256-1.46-16.674-.54-33.348-1.079a7.582,7.582,0,0,0-4.756,1.055,6.524,6.524,0,0,0-2.855,6.124,2.478,2.478,0,0,0,2.4,2.4,2.415,2.415,0,0,0,2.4-2.4c-.193-1.5.51-2.436,2.051-2.4.858.018,1.715.056,2.572.083l6.512.211,17.231.558q21.481.695,42.964,1.387,19.938.642,39.876,1.275l7.207.226c1.908.059,3.89-.031,5.788.182a3.625,3.625,0,0,1,3.089,2.553,53.727,53.727,0,0,1,1.193,6.756q1.156,6.759,2.318,13.518,5.159,30.03,10.394,60.046.72,4.132,1.442,8.267.357,2.051.716,4.1c.2,1.138.766,2.63.566,3.78-.23,1.325-1.418,1.464-2.554,1.426q-1.673-.054-3.345-.113-8.631-.3-17.258-.652-22.254-.89-44.5-1.945c-14.172-.671-28.344-1.374-42.506-2.245-4.894-.3-9.789-.614-14.675-1.023-1-.084-2.086-.052-2.6-1.105A15.548,15.548,0,0,1,124,308.7l-.756-4.341q-1.434-8.234-2.864-16.467-5.026-28.944-10-57.9-1.113-6.484-2.22-12.969a2.42,2.42,0,0,0-2.952-1.677A2.457,2.457,0,0,0,103.534,218.3Z"/><path class="c" d="M308.087,286.528c-15.77,9.675-31.776,18.988-47.842,28.161-2.55,1.456-5.1,2.923-7.683,4.313-2.722,1.462-.3,5.608,2.422,4.144,5.8-3.118,11.481-6.478,17.18-9.778q12.947-7.5,25.81-15.141,6.288-3.742,12.535-7.554c2.629-1.613.221-5.766-2.422-4.145Z"/><path class="c" d="M404.514,276.23c7.129,0,14.259-.048,21.389-.07q1.825-.006,3.65-.01c3.088,0,3.094-4.8,0-4.8-7.265,0-14.531.046-21.8.07-1.081,0-2.162.009-3.243.01-3.089,0-3.094,4.8,0,4.8Z"/><path class="c" d="M246.88,25.462c-7.429,10.71-9.852,23.78-8.595,36.615a92.829,92.829,0,0,0,2.2,12.779c.725,3,5.355,1.73,4.628-1.277-2.007-8.3-3.035-16.955-1.912-25.471a45.923,45.923,0,0,1,7.824-20.224,2.421,2.421,0,0,0-.861-3.283,2.447,2.447,0,0,0-3.283.861Z"/><path class="c" d="M346.091,75.414a62.3,62.3,0,0,0,2.42-11.647,53.647,53.647,0,0,0,.415-10.227A52.886,52.886,0,0,0,342.7,30.876a36.871,36.871,0,0,0-8.78-10.522,2.471,2.471,0,0,0-3.394,0,2.418,2.418,0,0,0,0,3.394c11.109,9.046,14.882,24.627,13.379,38.4a58.34,58.34,0,0,1-2.441,11.986c-.975,2.939,3.659,4.2,4.628,1.276Z"/><path class="c" d="M327.464,14.05c-7.241-8-18.058-12.79-28.749-13.445-10.5-.643-20.9.694-30.513,5.137a48.462,48.462,0,0,0-16.28,11.863c-2.025,2.318,1.356,5.726,3.394,3.395,7.257-8.3,17.835-13.356,28.631-15.1a63.573,63.573,0,0,1,12.77-.6,39.65,39.65,0,0,1,14.642,3.185,37.747,37.747,0,0,1,12.711,8.958c2.077,2.3,5.463-1.107,3.394-3.394Z"/><path class="c" d="M304.378,52.535A31.021,31.021,0,0,1,317.49,64.409a88.244,88.244,0,0,1,4.779,8.813c.721,1.481,1.267,2.941,2.835,3.72a4.861,4.861,0,0,0,5.537-1.052c2.306-2.066-1.1-5.451-3.4-3.395-.446.4.188-.06.124.269q.159.293-.038-.058l-.186-.389c-.219-.441-.427-.888-.642-1.331-.69-1.42-1.393-2.832-2.129-4.228a56.47,56.47,0,0,0-4.422-7.233A34.363,34.363,0,0,0,306.8,48.39a2.473,2.473,0,0,0-3.283.861,2.419,2.419,0,0,0,.861,3.284Z"/><path class="c" d="M331.139,75.44c2.118-1.964,5.605-1.727,7.808-.017,2.656,2.061,3.6,5.777,3.186,8.99-1,7.8-7.838,13.56-14.617,16.517a2.415,2.415,0,0,0-.861,3.284,2.461,2.461,0,0,0,3.283.861c7.09-3.093,13.112-8.573,15.891-15.9,2.645-6.973.68-16.164-6.819-19.138a10.811,10.811,0,0,0-11.265,2.009c-2.27,2.106,1.131,5.494,3.394,3.394Z"/><path class="c" d="M242.4,75.451a77.906,77.906,0,0,0,4.771,24.968c3.171,8.433,8.365,16.622,15.54,22.208,13.883,10.808,34.29,11.3,48.983,1.847A59.282,59.282,0,0,0,330.772,104.2c1.536-2.686-2.61-5.107-4.145-2.423A55.2,55.2,0,0,1,311.766,118.6a38.828,38.828,0,0,1-23.439,7.822,38.416,38.416,0,0,1-20.416-5.951c-6.983-4.512-12.2-11.922-15.387-19.5a71.674,71.674,0,0,1-5.32-25.519c-.1-3.081-4.9-3.095-4.8,0Z"/><path class="c" d="M279.5,90.474a24.148,24.148,0,0,0-.867,2.537c-.42,1.428-.93,3.227.267,4.436a3.948,3.948,0,0,0,.882.64,4.243,4.243,0,0,0,1.04.4,7.245,7.245,0,0,0,1.485.1,2.471,2.471,0,0,0,1.7-.7,2.4,2.4,0,0,0,0-3.394,2.521,2.521,0,0,0-1.7-.7,6.247,6.247,0,0,1-.786-.005l.638.085a2,2,0,0,1-.387-.108l.573.242a2.578,2.578,0,0,1-.519-.311l.486.375a.077.077,0,0,1-.018-.018l.375.486a.2.2,0,0,1-.021-.038l.242.573a.416.416,0,0,1-.022-.091l.085.638a1.723,1.723,0,0,1,.015-.38l-.085.638a13.522,13.522,0,0,1,.588-2.27c.2-.624.4-1.254.658-1.859a2.4,2.4,0,0,0-.242-1.849,2.4,2.4,0,0,0-3.284-.861l-.486.375a2.407,2.407,0,0,0-.617,1.059Z"/><path class="c" d="M261.371,79.848c-.685,2.148-.379,7.126,3.535,7.625,5.187.068,5.595-5.935,3.912-8.794C267.439,76.339,263.258,75.3,261.371,79.848Z"/><path class="c" d="M305.882,80.03c.648,2.271.088,7.453-4.2,7.806-5.649-.151-5.82-6.433-3.857-9.345C299.436,76.108,304.036,75.2,305.882,80.03Z"/><path class="c" d="M289.123,116.7a19.681,19.681,0,0,0,4.042-5.166c1.179-2.208,2.731-5.794-.09-7.468-1.394-.827-3.321-.412-4.858-.277-1.648.145-3.293.318-4.937.506-1.841.21-3.682.438-5.515.714a2.408,2.408,0,0,0-1.676,2.952,2.475,2.475,0,0,0,2.952,1.677c.336-.051.672-.1,1.008-.146.7-.1-.283.035.175-.024l.519-.067q1.317-.168,2.635-.317c1.787-.2,3.576-.39,5.367-.54.712-.06,1.424-.115,2.136-.152a1.507,1.507,0,0,0,.369-.017,1.34,1.34,0,0,1-.878-.376,1.565,1.565,0,0,1-.441-1.265,3.863,3.863,0,0,0-.2.728c-.051.161-.105.32-.163.479q-.163.405-.043.135a16.541,16.541,0,0,1-1.793,3.111c-.147.211-.294.424-.453.627.231-.3-.219.237-.274.3-.4.42-.849.8-1.275,1.2a2.42,2.42,0,0,0,0,3.394,2.451,2.451,0,0,0,3.394,0Z"/><path class="c" d="M327.421,101.858a80.819,80.819,0,0,1-11.305,4.882c-4.095,1.36-8.325,2.221-12.528,3.167-3.013.678-1.738,5.307,1.276,4.629a124.23,124.23,0,0,0,12.9-3.291A91.1,91.1,0,0,0,329.843,106c2.75-1.409.324-5.552-2.422-4.144Z"/><path class="c" d="M298.357,109.447a4.373,4.373,0,0,0-.263,6.415,6.731,6.731,0,0,0,5.547,1.512c2.131-.3,4.765-2.7,4.843-5.125.075-2.355-2.918-4.042-5.538-4.318A5.472,5.472,0,0,0,298.357,109.447Z"/><path class="c" d="M328.9,95.376a84.224,84.224,0,0,1-2.917,10.476,2.324,2.324,0,0,0,1.244,2.311,9.379,9.379,0,0,0,4.182,1.12,2.547,2.547,0,0,0,2.464-.952,42.959,42.959,0,0,0,3.213-11.9Z"/><path class="c" d="M324.633,108.151A22.465,22.465,0,0,0,331.2,99.73a2.606,2.606,0,0,0,.242-1.849,2.4,2.4,0,0,0-2.952-1.677,2.338,2.338,0,0,0-1.435,1.1,20.874,20.874,0,0,1-1.137,2.2c-.222.373-.457.739-.7,1.1-.111.161-.223.321-.338.479-.064.088-.13.174-.194.262-.241.33.28-.351.1-.124a21.751,21.751,0,0,1-3.544,3.536,2.4,2.4,0,0,0-.7,1.7,2.443,2.443,0,0,0,.7,1.7,2.414,2.414,0,0,0,1.7.7,2.8,2.8,0,0,0,1.7-.7Z"/><path class="a" d="M339.9,83.582a12.171,12.171,0,0,1,1.6,7.261,11.266,11.266,0,0,1-2.176,6.5,6.155,6.155,0,0,1-6.68,1.915,7.145,7.145,0,0,1-2.942-2.35,11.618,11.618,0,0,1-2-10.176,8.232,8.232,0,0,1,4.128-5.507c2.29-1.129,6.543-.67,8.07,2.36"/><path class="c" d="M337.823,84.794a11.172,11.172,0,0,1,.606,9.33,4.763,4.763,0,0,1-2.261,2.715c-.426.228-.173.069-.072.034-.144.051-.289.1-.436.14-.18.05-.363.084-.545.127-.371.088.365-.021-.006,0a7.5,7.5,0,0,1-.924.019c-.129-.006-.257-.018-.385-.032.294.033.307.063.017-.023-.132-.04-.265-.073-.4-.114.117.037.426.233-.085-.043-.163-.089-.323-.178-.48-.278-.4-.257-.264-.183-.174-.112a6.725,6.725,0,0,1-1.445-1.6,9.121,9.121,0,0,1-1.514-4.246,9.624,9.624,0,0,1,.635-4.433c.148-.394-.121.245.057-.139.091-.2.188-.388.293-.577a7.444,7.444,0,0,1,.557-.879,6.038,6.038,0,0,1,1.279-1.121c.162-.1.329-.176.492-.268-.489.275-.061.024.1-.026a5.981,5.981,0,0,1,.942-.217c-.563.084.407,0,.592.008.141,0,.281.017.422.022.626.02-.4-.126.209.03.352.09.694.171,1.038.289-.428-.147.374.206.494.272.1.055.473.339.13.061.141.114.266.245.4.369.083.077.359.45.117.106a5.472,5.472,0,0,1,.349.585,2.4,2.4,0,1,0,4.144-2.423c-1.855-3.472-6.45-4.9-10.111-3.731-4.467,1.432-6.682,6.1-6.941,10.5-.262,4.437,1.862,9.831,6,11.959a8.577,8.577,0,0,0,10.979-3.229,14.894,14.894,0,0,0,2.027-7.47,14.634,14.634,0,0,0-1.952-8.025c-1.56-2.664-5.711-.251-4.144,2.423Z"/><path class="c" d="M284.76,144.481c3.451-3.415,6.971-6.759,10.422-10.174h-3.394q6.211,5.776,12.024,11.957a2.41,2.41,0,0,0,3.394,0c3-3.659,6.045-7.275,9-10.968a2.475,2.475,0,0,0,0-3.394,2.417,2.417,0,0,0-3.394,0c-2.954,3.693-6,7.309-9,10.968h3.394q-5.811-6.178-12.024-11.957a2.443,2.443,0,0,0-3.394,0c-3.451,3.414-6.971,6.759-10.422,10.174-2.2,2.176,1.195,5.57,3.394,3.394Z"/><path class="c" d="M282.94,142.506c1.067,3.4,2.239,6.774,3.481,10.115v-1.276a209.538,209.538,0,0,0-5.174,30.834,2.42,2.42,0,0,0,2.4,2.4,2.448,2.448,0,0,0,2.4-2.4,194.156,194.156,0,0,1,3-20.851c.363-1.868.806-3.719,1.251-5.568.234-.971.5-1.94.7-2.918a4.366,4.366,0,0,0-.366-2.632c-1.079-2.971-2.117-5.963-3.063-8.98-.921-2.937-5.557-1.683-4.629,1.276Z"/><path class="c" d="M301.363,143.045c-.677,1.679-1.394,3.345-1.993,5.054a17.186,17.186,0,0,0-1.292,5.094,29.452,29.452,0,0,0,.382,3.684q.873,7.422,1.934,14.823c.281,1.967.541,3.947.939,5.894a2.4,2.4,0,1,0,4.629-1.276c-.783-3.833-1.236-7.918-1.717-11.576-.486-3.707-1.235-7.527-1.35-11.269,0-.077-.017-.155-.015-.231,0-.024,0-.048,0-.072-.031.469.117-.335.149-.47q.312-1.331.736-2.63c.639-1.954,1.46-3.844,2.228-5.749a2.417,2.417,0,0,0-1.676-2.953,2.46,2.46,0,0,0-2.952,1.677Z"/><path class="c" d="M289.254,155.266c3.457,0,6.914-.008,10.37.067a2.4,2.4,0,0,0,0-4.8c-3.456-.075-6.913-.067-10.37-.067a2.4,2.4,0,0,0,0,4.8Z"/><path class="c" d="M326.736,122.74a36.029,36.029,0,0,1,9.153,9.908,28.966,28.966,0,0,1,2.623,5.106,18.709,18.709,0,0,1,.733,2.37c.021.089.188,1.059.135.607.042.363-.133,1,.122.226l.617-1.059s.655-.326.242-.187a3.265,3.265,0,0,0-.417.229c-.368.194-.749.366-1.127.54-1.218.559-2.452,1.083-3.686,1.607-2.3.975-4.819,1.988-7.188,3.056-1.811.817-1.288,3.2,0,4.145a76.757,76.757,0,0,1,6.485,5.508c1.051.965,2.089,1.944,3.1,2.948.911.9.812,1.241.183,2.062-2.3,3-4.468,6.11-6.645,9.2-6.375,9.056-12.657,18.177-19.138,27.158-3.271,4.532-6.565,9.037-10,13.321a2.473,2.473,0,0,0,0,3.394,2.417,2.417,0,0,0,3.394,0c7.155-8.917,13.695-18.332,20.256-27.688,3.242-4.625,6.466-9.262,9.717-13.88q1.941-2.754,3.906-5.491.8-1.1,1.606-2.2c.216-.291.432-.582.651-.871q.175-.233.352-.463c.041-.054.211-.278,0,0-.257.334.324-.421.384-.516a5.659,5.659,0,0,0-.007-5.93,20.39,20.39,0,0,0-3.673-3.8,89.991,89.991,0,0,0-8.152-6.9v4.145c3.853-1.738,8.136-3.13,12.061-5.235a2.963,2.963,0,0,0,1.754-2.162,9.489,9.489,0,0,0-.528-3.883,32.658,32.658,0,0,0-4.761-9.5,42.585,42.585,0,0,0-9.733-9.914,2.418,2.418,0,0,0-3.284.861,2.456,2.456,0,0,0,.861,3.284Z"/><path class="c" d="M264.23,146.221c-1.633,1.317-3.2,2.715-4.712,4.168-1.431,1.376-3.483,2.982-4.308,4.816a4.434,4.434,0,0,0,.159,3.493q.65,1.827,1.306,3.652,1.3,3.6,2.618,7.191c3.319,9,6.8,17.938,10.587,26.752q3.04,7.082,6.393,14.022a2.423,2.423,0,0,0,3.284.861,2.452,2.452,0,0,0,.861-3.284c-7.752-15.977-14.046-32.614-20.012-49.325a20.364,20.364,0,0,0-.735-2.064c.306-.007-.635.878-.009.616.187-.078.528-.579.651-.71.746-.8,1.515-1.574,2.3-2.334,1.605-1.558,3.271-3.056,5.013-4.46a2.415,2.415,0,0,0,0-3.394,2.457,2.457,0,0,0-3.394,0Z"/><path class="c" d="M274.58,128.487a266.175,266.175,0,0,0,.617,37.845,178.622,178.622,0,0,0,6.452,33.066c1.591,5.326,3.368,10.607,5.373,15.792a2.471,2.471,0,0,0,2.953,1.676,2.417,2.417,0,0,0,1.676-2.952,186.436,186.436,0,0,1-8.559-28.519,188.538,188.538,0,0,1-4.015-35.588c-.141-7.108,0-14.218.3-21.32.13-3.089-4.67-3.083-4.8,0Z"/><path class="c" d="M325.875,119.456c-2.289,4.389-4.271,8.933-6.329,13.432-1.839,4.019-3.853,7.946-5.751,11.934-2.794,5.872-5.111,11.985-7.4,18.067-4.608,12.255-8.816,24.652-13.093,37.024-1.581,4.573-2.908,9.222-4.381,13.829q-.651,2.035-1.354,4.056a20.362,20.362,0,0,0-1.382,4.547,36.008,36.008,0,0,0,.393,7.59,2.47,2.47,0,0,0,2.4,2.4,2.416,2.416,0,0,0,2.4-2.4,41.3,41.3,0,0,1-.461-6.736,10.505,10.505,0,0,1,.886-3.019q.737-2.048,1.408-4.116c1.5-4.581,2.769-9.232,4.342-13.788,1.672-4.841,3.326-9.687,5.005-14.525,2.409-6.938,4.857-13.864,7.408-20.752,2.307-6.225,4.679-12.542,7.3-18.308,1.8-3.955,3.847-7.792,5.668-11.739,2.326-5.038,4.516-10.151,7.084-15.073,1.427-2.736-2.714-5.166-4.145-2.423Z"/><path class="c" d="M266.161,145.041q.042-1.18.193-2.352l-.085.638a24.593,24.593,0,0,1,1.211-4.982,2.4,2.4,0,0,0-1.676-2.953,2.462,2.462,0,0,0-2.952,1.677,26.553,26.553,0,0,0-1.491,7.972,2.419,2.419,0,0,0,2.4,2.4,2.451,2.451,0,0,0,2.4-2.4Z"/><path class="c" d="M271.409,124.366c-7.509,6.031-17.037,9-25.429,13.526a47.767,47.767,0,0,0-11.779,8.52c-4.1,4.232-6.539,9.346-8.215,14.945-1.84,6.15-3.294,12.424-4.879,18.642-1.354,5.31-2.749,10.612-4.093,15.925-1.4,5.52-2.725,11.058-4.087,16.586-.739,3,3.889,4.279,4.628,1.276q3.6-14.6,7.327-29.165c1.58-6.192,3.1-12.4,4.762-18.572,1.327-4.934,2.805-9.9,5.983-14a36.481,36.481,0,0,1,10.713-8.859c9.344-5.439,19.949-8.593,28.464-15.431a2.416,2.416,0,0,0,0-3.394,2.458,2.458,0,0,0-3.395,0Z"/><path class="c" d="M334.471,130.261c9.694,4.8,19.65,9.088,29.216,14.144a39.01,39.01,0,0,1,10.983,8.212,31.751,31.751,0,0,1,4.9,6.749,40.7,40.7,0,0,1,2.812,8.239c4.569,17.437,7.962,35.245,10.793,53.039A313.389,313.389,0,0,1,396.862,252c.175,3.072,4.976,3.092,4.8,0-.547-9.609-1.81-19.178-3.251-28.689-1.549-10.226-3.384-20.409-5.424-30.548-1.635-8.126-3.376-16.241-5.423-24.275-1.436-5.636-3-11.033-6.581-15.714a42.3,42.3,0,0,0-11.156-10.4,153.4,153.4,0,0,0-15.553-7.958c-5.8-2.757-11.626-5.453-17.381-8.3a2.459,2.459,0,0,0-3.283.861,2.423,2.423,0,0,0,.861,3.284Z"/><path class="c" d="M344.529,198.858q5.538,21.06,10.074,42.364c.642,3.02,5.271,1.742,4.628-1.276q-4.533-21.3-10.074-42.364c-.785-2.985-5.416-1.719-4.628,1.276Z"/><path class="c" d="M300.308,48.9c-1.228-4.05-4.687-7.087-8.44-8.814a24.7,24.7,0,0,0-13.947-1.974,2.415,2.415,0,0,0-1.677,2.952,2.465,2.465,0,0,0,2.953,1.676,18.8,18.8,0,0,1,10.248,1.491,14.714,14.714,0,0,1,4.019,2.613,7.673,7.673,0,0,1,2.216,3.332c.894,2.949,5.528,1.692,4.628-1.276Z"/><path class="c" d="M285.758,45.1c-6.707-1.121-15.029-1.849-20.874,2.4-5.337,3.877-6.338,10.612-9.845,15.8a1.876,1.876,0,0,1-.277.379c-.207.25-.425.492-.653.723a7.83,7.83,0,0,1-1.319,1.107,17.644,17.644,0,0,1-4.613,2.076c-2.937.921-1.683,5.557,1.276,4.628a19.373,19.373,0,0,0,7.874-4.242,19.189,19.189,0,0,0,3.839-5.916,59.606,59.606,0,0,1,4.147-8.213c1.8-2.7,4.661-3.925,7.758-4.465a34.392,34.392,0,0,1,11.411.354,2.472,2.472,0,0,0,2.952-1.676,2.418,2.418,0,0,0-1.676-2.952Z"/></svg>